# xmcd CD database file
#
# Track frame offsets:
#	150
#	23471
#	46118
#	84807
#	109678
#	137677
#	146260
#	173939
#	197529
#	222103
#	231346
#
# Disc length: 3358 seconds
#
# Revision: 0
# Processed by: cddbd v1.5.2PL0 Copyright (c) Steve Scherf et al.
# Submitted via: CDex 1.70beta2
#
DISCID=830d1c0b
DTITLE=Oxyd - Oblivious
DYEAR=2010
DGENRE=Jazz
TTITLE0=Très clair
TTITLE1=Oblivious
TTITLE2=Zeroh
TTITLE3=Doug
TTITLE4=Ankh
TTITLE5=Interlude 1
TTITLE6=Arkhos
TTITLE7=Heya
TTITLE8=Somnus
TTITLE9=Interlude 2
TTITLE10=Sidérodrome
EXTD=YEAR: 2010
EXTT0=
EXTT1=
EXTT2=
EXTT3=
EXTT4=
EXTT5=
EXTT6=
EXTT7=
EXTT8=
EXTT9=
EXTT10=
PLAYORDER=
